<svg aria-hidden="true" style="position:absolute;width:0;height:0" xmlns="http://www.w3.org/2000/svg" overflow="hidden"><defs><symbol id="icon-close" viewBox="0 0 18 18"><path d="M15 4.108L13.892 3 9.5 7.392 5.108 3 4 4.108 8.392 8.5 4 12.892 5.108 14 9.5 9.608 13.892 14 15 12.892 10.608 8.5 15 4.108z"/></symbol><symbol id="icon-favorite" viewBox="0 0 34 32"><path fill="var(--color1, #ff6b08)" d="m17.25 31.737-2.415-2.415C5.865 21.387 0 16.039 0 9.484 0 4.136 4.14-.004 9.488-.004c2.933 0 5.865 1.38 7.762 3.623 1.898-2.243 4.83-3.623 7.762-3.623 5.348 0 9.488 4.14 9.488 9.488 0 6.555-5.865 11.902-14.835 19.838l-2.415 2.415z"/></symbol><symbol id="icon-film" viewBox="0 0 32 32"><path fill="none" stroke="var(--color2, #818181)" stroke-linejoin="round" stroke-linecap="round" stroke-width="2.667" d="M26.444 2.668H5.577a2.91 2.91 0 0 0-2.909 2.909v20.867a2.91 2.91 0 0 0 2.909 2.909v0h20.867a2.91 2.91 0 0 0 2.909-2.909v0V5.577a2.91 2.91 0 0 0-2.909-2.909v0zm-17.105 0v26.684M22.681 2.668v26.684M2.668 16.01h26.684M2.668 9.339h6.671M2.668 22.681h6.671m13.342 0h6.671M22.681 9.339h6.671"/></symbol><symbol id="icon-search" viewBox="0 0 32 32"><path fill="none" stroke="var(--color3, #fff)" stroke-linejoin="round" stroke-linecap="round" stroke-width="2.667" d="M14.676 25.35c5.895 0 10.674-4.779 10.674-10.674S20.571 4.002 14.676 4.002v0c-5.895 0-10.674 4.779-10.674 10.674S8.781 25.35 14.676 25.35v0zm13.342 2.668-5.804-5.804"/></symbol><symbol id="icon-circle-up" viewBox="0 0 32 32">
<path d="M0 16c0 8.837 7.163 16 16 16s16-7.163 16-16-7.163-16-16-16-16 7.163-16 16zM29 16c0 7.18-5.82 13-13 13s-13-5.82-13-13 5.82-13 13-13 13 5.82 13 13z"></path>
<path d="M22.086 20.914l2.829-2.829-8.914-8.914-8.914 8.914 2.828 2.828 6.086-6.086z"></path>
</symbol></defs></svg>